<svg width="111" height="61" viewBox="0 0 111 61" fill="none" xmlns="http://www.w3.org/2000/svg">
<path d="M106.495 60.16C105.194 60.16 104.113 59.8306 103.251 59.1717C102.389 58.5129 101.884 57.6197 101.738 56.4924H103.623C103.74 57.0634 104.04 57.5612 104.522 57.9858C105.019 58.3957 105.684 58.6007 106.516 58.6007C107.291 58.6007 107.861 58.4397 108.226 58.1175C108.591 57.7808 108.774 57.3855 108.774 56.9316C108.774 56.2727 108.533 55.8335 108.051 55.6139C107.583 55.3943 106.918 55.1966 106.056 55.0209C105.472 54.9038 104.887 54.7354 104.303 54.5158C103.718 54.2962 103.229 53.9887 102.834 53.5934C102.44 53.1834 102.242 52.649 102.242 51.9902C102.242 51.0385 102.593 50.2625 103.294 49.6622C104.01 49.0473 104.975 48.7398 106.188 48.7398C107.342 48.7398 108.285 49.0326 109.015 49.6183C109.76 50.1893 110.191 51.0092 110.308 52.078H108.489C108.416 51.5216 108.175 51.0897 107.766 50.7823C107.371 50.4602 106.838 50.2991 106.166 50.2991C105.508 50.2991 104.997 50.4382 104.632 50.7164C104.281 50.9946 104.105 51.3606 104.105 51.8145C104.105 52.2537 104.332 52.5978 104.785 52.8467C105.253 53.0956 105.881 53.3079 106.67 53.4836C107.342 53.63 107.978 53.813 108.577 54.0326C109.191 54.2376 109.687 54.5524 110.067 54.977C110.462 55.3869 110.659 55.9872 110.659 56.7779C110.674 57.7588 110.301 58.5714 109.541 59.2156C108.796 59.8452 107.78 60.16 106.495 60.16Z" fill="#61D3AB"/>
<path d="M94.3672 59.8965V49.0034H96.033L96.1864 51.0897C96.5225 50.3723 97.0339 49.8013 97.7207 49.3767C98.4075 48.9521 99.255 48.7398 100.263 48.7398V50.6725H99.7591C99.1162 50.6725 98.5244 50.7896 97.9837 51.0238C97.4431 51.2435 97.012 51.6241 96.6905 52.1659C96.3691 52.7076 96.2083 53.4543 96.2083 54.406V59.8965H94.3672Z" fill="#61D3AB"/>
<path d="M86.7778 60.16C85.7403 60.16 84.8197 59.9258 84.0161 59.4572C83.2124 58.9741 82.5767 58.3079 82.1092 57.4587C81.6562 56.6095 81.4297 55.6066 81.4297 54.4499C81.4297 53.3079 81.6562 52.3123 82.1092 51.4631C82.5621 50.5992 83.1905 49.9331 83.9941 49.4645C84.8124 48.9814 85.7549 48.7398 86.8216 48.7398C87.8737 48.7398 88.7796 48.9814 89.5395 49.4645C90.3139 49.9331 90.9057 50.5553 91.3149 51.3313C91.724 52.1073 91.9286 52.9419 91.9286 53.835C91.9286 53.996 91.9213 54.1571 91.9067 54.3181C91.9067 54.4792 91.9067 54.6622 91.9067 54.8672H83.2489C83.2928 55.7017 83.4827 56.3972 83.8188 56.9536C84.1695 57.4953 84.6005 57.9053 85.112 58.1834C85.638 58.4616 86.1933 58.6007 86.7778 58.6007C87.5376 58.6007 88.1732 58.425 88.6847 58.0736C89.1961 57.7222 89.5687 57.2464 89.8025 56.6461H91.6217C91.3295 57.6563 90.7669 58.4982 89.934 59.1717C89.1157 59.8306 88.0636 60.16 86.7778 60.16ZM86.7778 50.2991C85.901 50.2991 85.1193 50.57 84.4325 51.1117C83.7603 51.6388 83.3731 52.4148 83.2708 53.4397H90.1093C90.0655 52.4587 89.7294 51.69 89.1011 51.1337C88.4728 50.5773 87.6983 50.2991 86.7778 50.2991Z" fill="#61D3AB"/>
<path d="M78.0089 59.8964C77.0153 59.8964 76.2335 59.6549 75.6636 59.1717C75.0937 58.6885 74.8088 57.8174 74.8088 56.5582V50.5626H72.9238V49.0033H74.8088L75.0499 46.3899H76.65V49.0033H79.85V50.5626H76.65V56.5582C76.65 57.2464 76.7888 57.7149 77.0664 57.9638C77.344 58.1981 77.8335 58.3152 78.5349 58.3152H79.6747V59.8964H78.0089Z" fill="#61D3AB"/>
<path d="M66.5104 60.16C65.4729 60.16 64.5377 59.9258 63.7049 59.4572C62.8866 58.9741 62.2363 58.3079 61.7541 57.4587C61.2865 56.5949 61.0527 55.5919 61.0527 54.4499C61.0527 53.3079 61.2865 52.3123 61.7541 51.4631C62.2363 50.5992 62.8866 49.9331 63.7049 49.4645C64.5377 48.9814 65.4729 48.7398 66.5104 48.7398C67.7963 48.7398 68.8776 49.0766 69.7543 49.7501C70.6457 50.4236 71.2082 51.324 71.442 52.4514H69.5571C69.4109 51.7779 69.0529 51.2581 68.4831 50.8921C67.9132 50.5114 67.2483 50.3211 66.4885 50.3211C65.8748 50.3211 65.2976 50.4748 64.7569 50.7823C64.2163 51.0897 63.7779 51.5509 63.4418 52.1659C63.1058 52.7808 62.9377 53.5421 62.9377 54.4499C62.9377 55.3577 63.1058 56.119 63.4418 56.7339C63.7779 57.3489 64.2163 57.8174 64.7569 58.1395C65.2976 58.447 65.8748 58.6007 66.4885 58.6007C67.2483 58.6007 67.9132 58.4177 68.4831 58.0517C69.0529 57.671 69.4109 57.1366 69.5571 56.4484H71.442C71.2228 57.5465 70.6676 58.4397 69.7762 59.1278C68.8849 59.8159 67.7963 60.16 66.5104 60.16Z" fill="#61D3AB"/>
<path d="M53.2693 60.16C52.3633 60.16 51.6108 60.0063 51.0117 59.6988C50.4126 59.3913 49.9669 58.9814 49.6747 58.4689C49.3825 57.9565 49.2363 57.4001 49.2363 56.7998C49.2363 55.6871 49.6601 54.8306 50.5076 54.2303C51.3551 53.63 52.5095 53.3299 53.9707 53.3299H56.9077V53.1981C56.9077 52.2464 56.6593 51.529 56.1625 51.0458C55.6657 50.548 55.0009 50.2991 54.168 50.2991C53.452 50.2991 52.8309 50.4821 52.3049 50.8482C51.7935 51.1995 51.472 51.7193 51.3405 52.4074H49.4555C49.5286 51.6168 49.7916 50.9506 50.2446 50.4089C50.7122 49.8672 51.2893 49.4572 51.9761 49.179C52.6629 48.8862 53.3935 48.7398 54.168 48.7398C55.6876 48.7398 56.8274 49.1498 57.5872 49.9697C58.3617 50.7749 58.7489 51.8511 58.7489 53.1981V59.8965H57.105L56.9954 57.9419C56.6886 58.5568 56.2356 59.0839 55.6365 59.5231C55.052 59.9477 54.2629 60.16 53.2693 60.16ZM53.5542 58.6007C54.2556 58.6007 54.8547 58.4177 55.3515 58.0517C55.863 57.6856 56.2502 57.2098 56.5132 56.6241C56.7762 56.0385 56.9077 55.4236 56.9077 54.7793V54.7574H54.1241C53.0428 54.7574 52.2757 54.9477 51.8227 55.3284C51.3843 55.6944 51.1651 56.1556 51.1651 56.712C51.1651 57.283 51.3697 57.7442 51.7789 58.0956C52.2026 58.4323 52.7944 58.6007 53.5542 58.6007Z" fill="#61D3AB"/>
<path d="M41.6914 59.8965V49.0034H43.3572L43.5106 51.0897C43.8467 50.3723 44.3581 49.8013 45.0449 49.3767C45.7317 48.9521 46.5792 48.7398 47.5874 48.7398V50.6725H47.0833C46.4404 50.6725 45.8486 50.7896 45.3079 51.0238C44.7673 51.2435 44.3362 51.6241 44.0147 52.1659C43.6933 52.7076 43.5325 53.4543 43.5325 54.406V59.8965H41.6914Z" fill="#61D3AB"/>
<path d="M33.449 60.16C32.543 60.16 31.7905 60.0063 31.1914 59.6988C30.5923 59.3913 30.1466 58.9814 29.8544 58.4689C29.5621 57.9565 29.416 57.4001 29.416 56.7998C29.416 55.6871 29.8398 54.8306 30.6873 54.2303C31.5348 53.63 32.6892 53.3299 34.1504 53.3299H37.0874V53.1981C37.0874 52.2464 36.839 51.529 36.3422 51.0458C35.8454 50.548 35.1805 50.2991 34.3476 50.2991C33.6316 50.2991 33.0106 50.4821 32.4846 50.8482C31.9732 51.1995 31.6517 51.7193 31.5202 52.4074H29.6352C29.7083 51.6168 29.9713 50.9506 30.4243 50.4089C30.8918 49.8672 31.469 49.4572 32.1558 49.179C32.8426 48.8862 33.5732 48.7398 34.3476 48.7398C35.8673 48.7398 37.0071 49.1498 37.7669 49.9697C38.5414 50.7749 38.9286 51.8511 38.9286 53.1981V59.8965H37.2847L37.1751 57.9419C36.8683 58.5568 36.4153 59.0839 35.8162 59.5231C35.2317 59.9477 34.4426 60.16 33.449 60.16ZM33.7339 58.6007C34.4353 58.6007 35.0344 58.4177 35.5312 58.0517C36.0427 57.6856 36.4299 57.2098 36.6929 56.6241C36.9559 56.0385 37.0874 55.4236 37.0874 54.7793V54.7574H34.3038C33.2225 54.7574 32.4554 54.9477 32.0024 55.3284C31.564 55.6944 31.3448 56.1556 31.3448 56.712C31.3448 57.283 31.5494 57.7442 31.9585 58.0956C32.3823 58.4323 32.9741 58.6007 33.7339 58.6007Z" fill="#61D3AB"/>
<path d="M17.2891 59.8965V44.0839H19.1302V50.8701C19.4955 50.1966 20.0142 49.6768 20.6864 49.3108C21.3586 48.9301 22.0892 48.7398 22.8782 48.7398C24.1349 48.7398 25.1431 49.1351 25.903 49.9257C26.6628 50.7017 27.0427 51.9023 27.0427 53.5275V59.8965H25.2235V53.7252C25.2235 51.4558 24.3102 50.3211 22.4837 50.3211C21.5339 50.3211 20.7375 50.6651 20.0946 51.3533C19.4517 52.0268 19.1302 52.9931 19.1302 54.2522V59.8965H17.2891Z" fill="#61D3AB"/>
<path d="M8.35198 60.16C6.84692 60.16 5.54643 59.8306 4.45051 59.1717C3.36921 58.4982 2.529 57.5685 1.9299 56.3825C1.3308 55.182 1.03125 53.791 1.03125 52.2098C1.03125 50.6432 1.3308 49.2669 1.9299 48.0809C2.529 46.8803 3.36921 45.9433 4.45051 45.2698C5.54643 44.5963 6.84692 44.2596 8.35198 44.2596C10.1054 44.2596 11.5301 44.6842 12.6261 45.5333C13.7366 46.3679 14.4453 47.5392 14.7521 49.0473H12.7137C12.4799 48.0956 11.9977 47.3342 11.2671 46.7632C10.5511 46.1776 9.5794 45.8847 8.35198 45.8847C7.25606 45.8847 6.29896 46.141 5.48067 46.6534C4.66239 47.1512 4.02676 47.876 3.57378 48.8276C3.13541 49.7647 2.91623 50.8921 2.91623 52.2098C2.91623 53.5275 3.13541 54.6622 3.57378 55.6139C4.02676 56.5509 4.66239 57.2757 5.48067 57.7881C6.29896 58.2859 7.25606 58.5348 8.35198 58.5348C9.5794 58.5348 10.5511 58.2566 11.2671 57.7003C11.9977 57.1292 12.4799 56.3752 12.7137 55.4382H14.7521C14.4453 56.9169 13.7366 58.0736 12.6261 58.9082C11.5301 59.7427 10.1054 60.16 8.35198 60.16Z" fill="#61D3AB"/>
<path d="M65.4164 38.1981C64.379 38.1981 63.4584 37.9638 62.6547 37.4953C61.8511 37.0121 61.2154 36.3459 60.7478 35.4967C60.2948 34.6476 60.0684 33.6446 60.0684 32.488C60.0684 31.3459 60.2948 30.3503 60.7478 29.5011C61.2008 28.6373 61.8291 27.9711 62.6328 27.5026C63.4511 27.0194 64.3936 26.7779 65.4603 26.7779C66.5124 26.7779 67.4183 27.0194 68.1781 27.5026C68.9526 27.9711 69.5444 28.5934 69.9535 29.3694C70.3627 30.1454 70.5672 30.9799 70.5672 31.873C70.5672 32.0341 70.5599 32.1951 70.5453 32.3562C70.5453 32.5172 70.5453 32.7003 70.5453 32.9052H61.8876C61.9314 33.7398 62.1214 34.4353 62.4575 34.9916C62.8082 35.5334 63.2392 35.9433 63.7506 36.2215C64.2767 36.4997 64.8319 36.6388 65.4164 36.6388C66.1763 36.6388 66.8119 36.4631 67.3233 36.1117C67.8348 35.7603 68.2074 35.2845 68.4412 34.6842H70.2604C69.9681 35.6944 69.4056 36.5363 68.5727 37.2098C67.7544 37.8686 66.7023 38.1981 65.4164 38.1981ZM65.4164 28.3372C64.5397 28.3372 63.7579 28.608 63.0712 29.1498C62.399 29.6768 62.0118 30.4528 61.9095 31.4777H68.748C68.7042 30.4968 68.3681 29.7281 67.7398 29.1717C67.1115 28.6153 66.337 28.3372 65.4164 28.3372Z" fill="#61D3AB"/>
<path d="M47.9844 37.9345V27.0414H49.6502L49.7598 28.996C50.1105 28.3079 50.6146 27.7661 51.2721 27.3708C51.9297 26.9755 52.6749 26.7779 53.5078 26.7779C54.7937 26.7779 55.8165 27.1732 56.5764 27.9638C57.3508 28.7398 57.738 29.9404 57.738 31.5656V37.9345H55.8969V31.7632C55.8969 29.4938 54.9617 28.3591 53.0913 28.3591C52.1562 28.3591 51.3744 28.7032 50.7461 29.3913C50.1324 30.0648 49.8255 31.0312 49.8255 32.2903V37.9345H47.9844Z" fill="#61D3AB"/>
<path d="M39.742 38.1981C38.836 38.1981 38.0835 38.0443 37.4844 37.7369C36.8853 37.4294 36.4396 37.0194 36.1474 36.507C35.8551 35.9946 35.709 35.4382 35.709 34.8379C35.709 33.7252 36.1327 32.8686 36.9802 32.2683C37.8278 31.6681 38.9821 31.3679 40.4433 31.3679H43.3804V31.2361C43.3804 30.2845 43.132 29.567 42.6352 29.0839C42.1384 28.5861 41.4735 28.3372 40.6406 28.3372C39.9246 28.3372 39.3036 28.5202 38.7776 28.8862C38.2661 29.2376 37.9447 29.7574 37.8131 30.4455H35.9282C36.0012 29.6549 36.2643 28.9887 36.7172 28.447C37.1848 27.9052 37.762 27.4953 38.4488 27.2171C39.1356 26.9243 39.8662 26.7779 40.6406 26.7779C42.1603 26.7779 43.3 27.1878 44.0599 28.0077C44.8343 28.813 45.2215 29.8891 45.2215 31.2361V37.9345H43.5777L43.4681 35.9799C43.1612 36.5948 42.7082 37.1219 42.1091 37.5612C41.5247 37.9858 40.7356 38.1981 39.742 38.1981ZM40.0269 36.6388C40.7283 36.6388 41.3274 36.4558 41.8242 36.0897C42.3356 35.7237 42.7229 35.2478 42.9859 34.6622C43.2489 34.0765 43.3804 33.4616 43.3804 32.8174V32.7954H40.5968C39.5155 32.7954 38.7483 32.9858 38.2953 33.3664C37.857 33.7325 37.6378 34.1937 37.6378 34.75C37.6378 35.3211 37.8424 35.7823 38.2515 36.1336C38.6753 36.4704 39.2671 36.6388 40.0269 36.6388Z" fill="#61D3AB"/>
<path d="M28.6237 38.1981C27.5862 38.1981 26.651 37.9638 25.8181 37.4953C24.9999 37.0121 24.3496 36.3459 23.8674 35.4967C23.3998 34.6329 23.166 33.63 23.166 32.488C23.166 31.3459 23.3998 30.3503 23.8674 29.5011C24.3496 28.6373 24.9999 27.9711 25.8181 27.5026C26.651 27.0194 27.5862 26.7779 28.6237 26.7779C29.9096 26.7779 30.9909 27.1146 31.8676 27.7881C32.7589 28.4616 33.3215 29.3621 33.5553 30.4894H31.6703C31.5242 29.8159 31.1662 29.2962 30.5963 28.9301C30.0265 28.5495 29.3616 28.3591 28.6018 28.3591C27.9881 28.3591 27.4109 28.5129 26.8702 28.8203C26.3296 29.1278 25.8912 29.589 25.5551 30.2039C25.219 30.8189 25.051 31.5802 25.051 32.488C25.051 33.3957 25.219 34.1571 25.5551 34.772C25.8912 35.3869 26.3296 35.8555 26.8702 36.1776C27.4109 36.485 27.9881 36.6388 28.6018 36.6388C29.3616 36.6388 30.0265 36.4558 30.5963 36.0897C31.1662 35.709 31.5242 35.1746 31.6703 34.4865H33.5553C33.3361 35.5846 32.7809 36.4777 31.8895 37.1659C30.9982 37.854 29.9096 38.1981 28.6237 38.1981Z" fill="#61D3AB"/>
<path d="M16.0703 37.9345V27.0414H17.7361L17.8895 29.1278C18.2256 28.4104 18.737 27.8394 19.4238 27.4148C20.1106 26.9902 20.9581 26.7779 21.9663 26.7779V28.7105H21.4622C20.8193 28.7105 20.2275 28.8276 19.6868 29.0619C19.1462 29.2815 18.7151 29.6622 18.3937 30.2039C18.0722 30.7457 17.9115 31.4924 17.9115 32.444V37.9345H16.0703Z" fill="#61D3AB"/>
<path d="M0.660156 37.9345L6.31509 22.5612H8.26582L13.8988 37.9345H11.9481L10.5453 33.9814H4.01366L2.58897 37.9345H0.660156ZM4.56162 32.488H9.99737L7.2795 24.8891L4.56162 32.488Z" fill="#61D3AB"/>
<path d="M86.5844 16.2361C85.5469 16.2361 84.6264 16.0019 83.8227 15.5334C83.019 15.0502 82.3834 14.384 81.9158 13.5348C81.4628 12.6856 81.2363 11.6827 81.2363 10.526C81.2363 9.38402 81.4628 8.38841 81.9158 7.53921C82.3688 6.67538 82.9971 6.0092 83.8008 5.54068C84.6191 5.05751 85.5615 4.81593 86.6282 4.81593C87.6803 4.81593 88.5863 5.05751 89.3461 5.54068C90.1206 6.0092 90.7124 6.63145 91.1215 7.40744C91.5306 8.18343 91.7352 9.01798 91.7352 9.9111C91.7352 10.0722 91.7279 10.2332 91.7133 10.3943C91.7133 10.5553 91.7133 10.7383 91.7133 10.9433H83.0556C83.0994 11.7779 83.2893 12.4733 83.6254 13.0297C83.9761 13.5714 84.4072 13.9814 84.9186 14.2596C85.4446 14.5377 85.9999 14.6768 86.5844 14.6768C87.3442 14.6768 87.9799 14.5011 88.4913 14.1498C89.0027 13.7984 89.3753 13.3225 89.6091 12.7222H91.4284C91.1361 13.7325 90.5735 14.5744 89.7406 15.2479C88.9224 15.9067 87.8703 16.2361 86.5844 16.2361ZM86.5844 6.37523C85.7077 6.37523 84.9259 6.64609 84.2391 7.18782C83.567 7.71491 83.1798 8.4909 83.0775 9.51579H89.916C89.8722 8.53482 89.5361 7.76615 88.9078 7.20978C88.2794 6.65341 87.505 6.37523 86.5844 6.37523Z" fill="#61D3AB"/>
<path d="M77.8175 15.9726C76.8238 15.9726 76.0421 15.731 75.4722 15.2478C74.9023 14.7647 74.6174 13.8935 74.6174 12.6344V6.63877H72.7324V5.07947H74.6174L74.8585 2.466H76.4585V5.07947H79.6586V6.63877H76.4585V12.6344C76.4585 13.3225 76.5974 13.791 76.875 14.0399C77.1526 14.2742 77.6421 14.3913 78.3435 14.3913H79.4833V15.9726H77.8175Z" fill="#61D3AB"/>
<path d="M69.3924 2.66366C69.0271 2.66366 68.7202 2.54653 68.4718 2.31227C68.238 2.06337 68.1211 1.7559 68.1211 1.38987C68.1211 1.03848 68.238 0.745655 68.4718 0.511394C68.7202 0.277134 69.0271 0.160004 69.3924 0.160004C69.7431 0.160004 70.0426 0.277134 70.291 0.511394C70.5394 0.745655 70.6636 1.03848 70.6636 1.38987C70.6636 1.7559 70.5394 2.06337 70.291 2.31227C70.0426 2.54653 69.7431 2.66366 69.3924 2.66366ZM68.4718 15.9726V5.07948H70.3129V15.9726H68.4718Z" fill="#61D3AB"/>
<path d="M60.3125 15.9726V5.07948H61.9783L62.1317 7.16586C62.4678 6.44844 62.9792 5.87743 63.666 5.45283C64.3528 5.02823 65.2003 4.81593 66.2085 4.81593V6.74858H65.7044C65.0615 6.74858 64.4697 6.86571 63.929 7.09997C63.3884 7.31959 62.9573 7.70027 62.6358 8.24199C62.3144 8.78372 62.1536 9.53043 62.1536 10.4821V15.9726H60.3125Z" fill="#61D3AB"/>
<path d="M51.7376 16.2361C50.4517 16.2361 49.4289 15.8481 48.6691 15.0721C47.9092 14.2815 47.5293 13.0736 47.5293 11.4484V5.07947H49.3704V11.2508C49.3704 13.5202 50.2983 14.6549 52.1541 14.6549C53.1039 14.6549 53.8856 14.3181 54.4993 13.6446C55.1277 12.9565 55.4418 11.9828 55.4418 10.7237V5.07947H57.283V15.9726H55.6172L55.4857 14.018C55.1496 14.7061 54.6454 15.2478 53.9733 15.6432C53.3157 16.0385 52.5705 16.2361 51.7376 16.2361Z" fill="#61D3AB"/>
<path d="M39.7537 16.2361C38.7308 16.2361 37.8102 16.0019 36.992 15.5334C36.1737 15.0648 35.5234 14.406 35.0412 13.5568C34.5736 12.6929 34.3398 11.6827 34.3398 10.526C34.3398 9.36937 34.5809 8.36645 35.0632 7.51725C35.5454 6.65341 36.1956 5.98724 37.0139 5.51872C37.8468 5.05019 38.7747 4.81593 39.7975 4.81593C40.8204 4.81593 41.7409 5.05019 42.5592 5.51872C43.3775 5.98724 44.0204 6.65341 44.488 7.51725C44.9702 8.36645 45.2113 9.36937 45.2113 10.526C45.2113 11.6827 44.9702 12.6929 44.488 13.5568C44.0058 14.406 43.3483 15.0648 42.5154 15.5334C41.6971 16.0019 40.7765 16.2361 39.7537 16.2361ZM39.7537 14.6549C40.382 14.6549 40.9665 14.5011 41.5071 14.1937C42.0478 13.8862 42.4862 13.425 42.8222 12.8101C43.1583 12.1951 43.3264 11.4338 43.3264 10.526C43.3264 9.61828 43.1583 8.85693 42.8222 8.24199C42.5008 7.62706 42.0697 7.16586 41.5291 6.85839C40.9884 6.55093 40.4112 6.39719 39.7975 6.39719C39.1692 6.39719 38.5847 6.55093 38.044 6.85839C37.5034 7.16586 37.065 7.62706 36.7289 8.24199C36.3929 8.85693 36.2248 9.61828 36.2248 10.526C36.2248 11.4338 36.3929 12.1951 36.7289 12.8101C37.065 13.425 37.4961 13.8862 38.0221 14.1937C38.5628 14.5011 39.14 14.6549 39.7537 14.6549Z" fill="#61D3AB"/>
<path d="M27.0601 15.9726L22.9395 5.07947H24.8683L28.1341 14.1937L31.4219 5.07947H33.3068L29.1862 15.9726H27.0601Z" fill="#61D3AB"/>
<path d="M16.0896 16.2361C15.1837 16.2361 14.4311 16.0824 13.832 15.7749C13.2329 15.4675 12.7873 15.0575 12.495 14.5451C12.2028 14.0326 12.0566 13.4763 12.0566 12.876C12.0566 11.7632 12.4804 10.9067 13.3279 10.3064C14.1754 9.70612 15.3298 9.40598 16.791 9.40598H19.7281V9.27421C19.7281 8.32252 19.4797 7.6051 18.9828 7.12194C18.486 6.62413 17.8212 6.37523 16.9883 6.37523C16.2723 6.37523 15.6512 6.55825 15.1252 6.92428C14.6138 7.27567 14.2923 7.79544 14.1608 8.48358H12.2758C12.3489 7.69295 12.6119 7.02677 13.0649 6.48504C13.5325 5.94331 14.1097 5.53336 14.7964 5.25517C15.4832 4.96235 16.2138 4.81593 16.9883 4.81593C18.5079 4.81593 19.6477 5.22589 20.4075 6.0458C21.182 6.85107 21.5692 7.92721 21.5692 9.27421V15.9726H19.9253L19.8157 14.018C19.5089 14.6329 19.0559 15.16 18.4568 15.5992C17.8723 16.0238 17.0832 16.2361 16.0896 16.2361ZM16.3746 14.6768C17.0759 14.6768 17.675 14.4938 18.1719 14.1278C18.6833 13.7618 19.0705 13.2859 19.3335 12.7003C19.5966 12.1146 19.7281 11.4997 19.7281 10.8555V10.8335H16.9444C15.8631 10.8335 15.096 11.0238 14.643 11.4045C14.2046 11.7705 13.9855 12.2317 13.9855 12.7881C13.9855 13.3591 14.19 13.8203 14.5992 14.1717C15.0229 14.5085 15.6147 14.6768 16.3746 14.6768Z" fill="#61D3AB"/>
<path d="M1.625 15.9726V0.599243H10.9622V2.11462H3.46614V7.51725H9.84438V9.01066H3.46614V15.9726H1.625Z" fill="#61D3AB"/>
</svg>
